<svg xmlns:xlink="http://www.w3.org/1999/xlink" width="80" xmlns="http://www.w3.org/2000/svg" height="80" id="screenshot-573c615e-9c26-8046-8001-821c350c96e3" viewBox="3106 766 80 80" style="-webkit-print-color-adjust: exact;" fill="none" version="1.1"><g id="shape-573c615e-9c26-8046-8001-821c350c96e3"><g id="fills-573c615e-9c26-8046-8001-821c350c96e3"><path rx="0" ry="0" d="M3106,766L3106,793.334L3143.334,793.334L3143.334,766.001ZM3148.667,766L3148.667,808.754L3186,808.754L3186,766ZM3112.4,772.399L3136.934,772.399L3136.934,786.934L3112.4,786.934ZM3155.066,772.399L3179.6,772.399L3179.6,802.355L3155.066,802.355ZM3106,799.227L3106,846L3143.334,846L3143.334,799.227ZM3112.4,805.628L3136.934,805.628L3136.934,839.6L3112.4,839.6ZM3148.667,814.927L3148.667,846L3186,846L3186,814.927ZM3155.066,821.328L3179.6,821.328L3179.6,839.6L3155.066,839.6Z" style="fill: rgb(255, 255, 250); fill-opacity: 1;"/></g></g></svg>